PathFileType	4	(X/Y/Z)	D:\TRACE\v60_Jaco2_6-2-23\JustBodyDRS_Motion2_6-v60.trc
DataRate	CameraRate	NumFrames	NumMarkers	Units	OrigDataRate	OrigDataStartFrame	OrigNumFrames
100.00	100.00	      35	9	mm	100.00	1	      6741
Frame#	Time	front left toe			Front right toe			aft left toe			aft right toe			Arm			FL body			FR body			AL Body			AR Body			
		X1	Y1	Z1	X2	Y2	Z2	X3	Y3	Z3	X4	Y4	Z4	X5	Y5	Z5	X6	Y6	Z6	X7	Y7	Z7	X8	Y8	Z8	X9	Y9	Z9	

1	0.000	-164.48175	19.22739	-166.47263	244.56244	17.99851	-205.57912	-103.70764	14.66632	441.36063	301.88226	19.53088	431.03787	-79.84405	1212.54529	-314.87692	-52.41269	580.50317	-307.63950	107.21610	580.55896	-323.40433	39.22446	584.89435	634.19983	197.01057	579.87738	621.41418	
2	0.010	-164.48474	19.20153	-166.44119	244.53444	17.99914	-205.58574	-103.66126	14.65081	441.31448	301.98914	19.58535	431.05051	-79.81983	1212.55225	-314.85138	-52.39643	580.51300	-307.61624	107.24709	580.54712	-323.37851	39.29264	584.93207	634.27789	197.05940	579.88489	621.47150	
3	0.020	-164.48805	19.22373	-166.46652	244.55844	18.00873	-205.58664	-103.68729	14.66966	441.30417	301.96426	19.55090	431.05350	-79.67062	1212.66589	-314.69742	-52.41032	580.50427	-307.62302	107.19180	580.55542	-323.39340	39.07330	584.71289	634.22070	196.81500	579.42261	620.51599	
4	0.030	-164.47284	19.20235	-166.46440	244.52234	18.00892	-205.57599	-103.68780	14.64060	441.31729	301.92941	19.54454	431.05627	-79.84249	1212.54846	-314.87955	-52.41679	580.49005	-307.63272	107.20031	580.55280	-323.39127	39.17801	584.87134	634.21075	197.01956	579.85278	621.45850	
5	0.040	-164.49332	19.21882	-166.43195	244.55679	18.00352	-205.57481	-103.69270	14.67031	441.31812	302.02209	19.55062	431.07147	-79.79168	1212.53088	-314.84650	-52.41685	580.49951	-307.61990	107.19173	580.55072	-323.39862	39.24331	584.89795	634.23022	196.99644	579.84906	621.44025	
6	0.050	-164.49622	19.25169	-166.43137	244.53299	18.00455	-205.58855	-103.72394	14.67435	441.31287	301.86438	19.50857	431.03207	-79.68328	1212.66406	-314.67911	-52.40600	580.51251	-307.62634	107.20653	580.55450	-323.38962	39.03960	584.69604	634.21796	197.01268	579.88678	621.41968	
7	0.060	-164.52547	19.24804	-166.45195	244.54529	18.01999	-205.58418	-103.67764	14.69622	441.30374	301.98926	19.57599	431.05679	-79.71851	1212.67029	-314.73587	-52.41539	580.50879	-307.64978	106.78623	580.47986	-323.14185	39.08343	584.72754	634.23138	197.12839	579.92639	621.46698	
8	0.070	-164.48958	19.19110	-166.45944	244.55270	18.01072	-205.59573	-103.71053	14.68314	441.30832	301.93585	19.54578	431.05972	-79.85000	1212.57275	-314.89273	-52.41014	580.51190	-307.64142	107.23750	580.56250	-323.40353	39.06474	584.71594	634.20087	195.72739	579.35016	620.57562	
9	0.080	-164.51085	19.25487	-166.46230	244.52087	18.00819	-205.55319	-103.69902	14.67327	441.36148	301.87820	19.52105	431.03134	-79.83624	1212.56787	-314.85004	-52.42184	580.50690	-307.62811	107.23855	580.57666	-323.41275	39.04973	584.72052	634.21075	197.04601	579.91089	621.38721	
10	0.090	-164.47243	19.21050	-166.41374	244.58234	18.00874	-205.60455	-103.64024	14.61334	441.32889	301.92157	19.51075	431.03854	-79.88665	1212.55762	-314.89160	-52.41179	580.49835	-307.61902	107.21696	580.56433	-323.39319	39.12656	584.68292	634.19495	196.98441	579.84259	621.43323	
11	0.100	-164.48302	19.25080	-166.42883	244.52705	17.99969	-205.54900	-103.65903	14.65375	441.32663	301.87451	19.50078	431.03186	-79.80453	1212.54150	-314.83521	-52.41728	580.50470	-307.64212	107.19518	580.56348	-323.40262	39.21314	584.88965	634.26727	196.85999	579.41486	620.50439	
12	0.110	-164.48189	19.25719	-166.43291	244.55385	18.01654	-205.59264	-103.66325	14.65220	441.32385	302.00186	19.55294	431.05539	-79.83549	1212.56787	-314.85504	-52.42213	580.51831	-307.64496	107.25348	580.55310	-323.37646	39.11742	584.68848	634.19604	197.04691	579.88568	621.42999	
13	0.120	-164.44986	19.23224	-166.42961	244.49252	18.00675	-205.57359	-103.66007	14.66097	441.30618	301.91275	19.52549	431.03073	-79.91327	1212.56628	-314.90714	-52.42025	580.48456	-307.62369	107.25877	580.57111	-323.37219	39.28701	584.90564	634.26489	197.06714	579.89282	621.45477	
14	0.130	-164.48466	19.23412	-166.46494	244.57475	18.04868	-205.55550	-103.64213	14.62824	441.34952	301.96732	19.52167	431.06851	-79.67983	1212.67065	-314.74405	-52.41143	580.50421	-307.63049	106.81699	580.44849	-323.12769	39.10191	584.69946	634.20746	196.83237	579.40082	620.51355	
15	0.140	-164.47783	19.22146	-166.46053	244.55600	18.00495	-205.57256	-103.67638	14.62430	441.33270	301.90063	19.52549	431.04398	-79.80447	1212.55859	-314.82214	-52.42712	580.47961	-307.62622	107.27116	580.56006	-323.39841	39.14812	584.87012	634.19611	197.01468	579.88647	621.42578	
16	0.150	-164.52393	19.23429	-166.41882	244.57156	18.00416	-205.58688	-103.68020	14.66006	441.34338	301.89511	19.50614	431.04050	-79.86223	1212.56335	-314.88058	-52.41628	580.47839	-307.60385	107.24875	580.57617	-323.37415	39.21627	584.90222	634.26337	197.04111	579.91333	621.46600	
17	0.160	-164.44144	19.24014	-166.43904	244.53304	17.99604	-205.58432	-103.72019	14.67563	441.30920	301.93842	19.55032	431.04358	-79.76786	1212.68152	-314.74966	-52.41150	580.50635	-307.63699	107.27375	580.56970	-323.37131	39.03389	584.67090	634.20001	197.01981	579.91193	621.41241	
18	0.170	-164.48911	19.27170	-166.44240	244.54178	18.00330	-205.59021	-103.68265	14.70531	441.31067	301.97415	19.56275	431.04474	-79.78825	1212.56421	-314.87302	-52.41524	580.48645	-307.61502	107.26701	580.58368	-323.39902	39.00140	584.71625	634.16736	197.07515	579.91113	621.46539	
19	0.180	-164.47919	19.23504	-166.43878	244.61143	17.99539	-205.55861	-103.63912	14.64615	441.29483	301.99756	19.56989	431.04941	-79.72355	1212.68262	-314.72372	-52.41329	580.50446	-307.64462	107.26371	580.57849	-323.37228	39.04398	584.72247	634.20288	195.86742	579.90924	621.41937	
20	0.190	-164.49979	19.21696	-166.46361	244.53380	18.01340	-205.59550	-103.66441	14.67391	441.29941	301.90683	19.53797	431.04727	-79.73571	1212.66455	-314.67236	-52.40861	580.50024	-307.60190	107.27634	580.57574	-323.36533	39.06915	584.69153	634.17340	196.80519	579.45758	620.53040	
21	0.200	-164.46204	19.19096	-166.48051	244.51425	17.99095	-205.62526	-103.72358	14.66448	441.32941	301.88577	19.51439	431.01935	-79.77205	1212.55518	-314.78473	-52.40750	580.51025	-307.61877	107.25598	580.56793	-323.37576	39.07293	584.68597	634.17255	197.03482	579.92151	621.42664	
22	0.210	-164.50964	19.24779	-166.47464	244.48952	17.99320	-205.59087	-103.72192	14.66452	441.30988	301.86652	19.52431	431.03906	-79.68453	1212.65894	-314.69946	-52.40974	580.49811	-307.60114	107.19234	580.55908	-323.39697	38.99989	584.69000	634.19464	197.04056	579.92969	621.41052	
23	0.220	-164.48346	19.28274	-166.43164	244.57323	18.01906	-205.61560	-103.69115	14.68017	441.32782	302.02164	19.59891	431.04843	-79.66847	1212.65210	-314.72919	-52.41696	580.49982	-307.62241	107.27836	580.57977	-323.37262	39.02434	584.73352	634.20203	197.07654	579.89154	621.41229	
24	0.230	-164.48094	19.24928	-166.46437	244.54285	18.00691	-205.60672	-103.71838	14.66303	441.36102	301.94614	19.55693	431.03781	-79.82794	1212.57471	-314.84747	-52.40773	580.50946	-307.61765	107.21510	580.55444	-323.37415	39.08323	584.73584	634.20374	196.85402	579.43939	620.50476	
25	0.240	-164.53169	19.26241	-166.44934	244.53305	18.00705	-205.60599	-103.66193	14.64315	441.31622	301.89911	19.50012	431.03250	-79.82300	1212.53284	-314.84991	-52.40883	580.51471	-307.64008	107.22320	580.59113	-323.37772	39.05241	584.70026	634.20923	197.02901	579.92249	621.41504	
26	0.250	-164.50513	19.21576	-166.44589	244.53751	17.97965	-205.56247	-103.67371	14.64013	441.36530	301.87442	19.50832	431.02966	-79.81065	1212.55334	-314.82651	-52.42176	580.50244	-307.64590	107.26434	580.54822	-323.37878	39.23710	584.88684	634.25555	196.80103	579.39502	620.52496	
27	0.260	-164.49297	19.18045	-166.44855	244.53419	17.99463	-205.58875	-103.66319	14.62453	441.37466	301.90524	19.49272	431.05359	-79.81902	1212.53992	-314.82703	-52.41579	580.48029	-307.60474	107.30128	580.57581	-323.36285	39.06848	584.66388	634.18414	197.05653	579.91766	621.42090	
28	0.270	-164.50410	19.18378	-166.47615	244.48647	17.97665	-205.57054	-103.69614	14.65047	441.33340	301.89966	19.52814	431.04578	-79.78934	1212.56604	-314.84973	-52.41294	580.50128	-307.60281	107.25670	580.55542	-323.37778	39.26383	584.92792	634.28851	197.07489	579.91772	621.46820	
29	0.280	-164.49881	19.19337	-166.46623	244.53885	18.00076	-205.58534	-103.64034	14.64548	441.32602	301.98996	19.54109	431.06030	-79.83675	1212.54553	-314.86649	-52.41366	580.49524	-307.62476	107.25489	580.58655	-323.38690	39.12465	584.70221	634.18005	195.88315	579.89038	621.39331	
30	0.290	-164.48370	19.22465	-166.44890	244.50717	17.96069	-205.59415	-103.70310	14.69454	441.31085	301.98569	19.54776	431.06226	-79.71160	1212.65527	-314.69351	-52.41325	580.50403	-307.62082	107.26360	580.56647	-323.36179	39.17435	584.90204	634.22461	197.10516	579.93652	621.42523	
31	0.300	-164.44420	19.23073	-166.45728	244.54965	17.98268	-205.59612	-103.65311	14.64822	441.35486	301.94394	19.49731	431.07257	-79.70353	1212.65881	-314.70383	-52.42201	580.50189	-307.62811	107.29886	580.56982	-323.34021	39.16902	584.81415	634.14435	197.01071	579.88855	621.42297	
32	0.310	-164.47417	19.20856	-166.43568	244.51482	17.98798	-205.56680	-103.70367	14.62269	441.33957	301.88062	19.47148	431.04111	-79.78827	1212.54138	-314.78879	-52.43220	580.48895	-307.62421	107.25639	580.57141	-323.32413	39.15446	584.86035	634.19885	197.02287	579.88892	621.43958	
33	0.320	-164.55363	19.22410	-166.46881	244.58369	18.03078	-205.60277	-103.69569	14.66875	441.28998	301.92383	19.48822	431.06631	-79.75018	1212.66711	-314.73520	-52.41738	580.48822	-307.60757	107.26645	580.58075	-323.35519	39.05580	584.70752	634.17877	196.91393	579.44348	620.53790	
34	0.330	-164.49280	19.24614	-166.46292	244.50969	17.99812	-205.56863	-103.71230	14.68395	441.34039	301.86835	19.50314	431.05661	-79.83365	1212.54004	-314.82532	-52.40855	580.51160	-307.61090	107.23034	580.58350	-323.36905	39.02421	584.72357	634.19928	197.02620	579.90271	621.45624	
35	0.340	-164.53018	19.23108	-166.46014	244.57729	18.00418	-205.55336	-103.68197	14.68239	441.30185	301.95209	19.55040	431.04956	-79.71652	1212.67505	-314.71237	-52.40573	580.51019	-307.60413	107.27073	580.56793	-323.36612	39.20579	584.88965	634.17249	197.05273	579.87976	621.40869	
